<svg viewBox="0 0 24 24">
   <path d="m 16.257849,12.916964 c -0.631476,-0.028 -1.272887,0.08349 -1.869997,0.347559 -0.982096,0.43433 -1.815762,1.345024 -2.157852,2.356154 -0.307584,0.909187 -0.30716,1.821909 0.0043,2.759151 0.580845,1.748072 2.440572,2.905278 4.298647,2.675992 0.582979,-0.07194 0.918776,-0.166864 1.454206,-0.413659 l 0.392336,-0.181243 0.722837,0.72497 0.724971,0.722838 0.586373,-0.58424 L 21,20.740246 20.27503,20.015274 19.552192,19.290306 19.731301,18.897968 c 0.523718,-1.136217 0.582579,-2.239992 0.179112,-3.345523 -0.202346,-0.554442 -0.435187,-0.933725 -0.850774,-1.377444 -0.726651,-0.77584 -1.749338,-1.211369 -2.801797,-1.258037 z m -0.181243,1.635447 c 0.918312,-0.0047 1.80263,0.50893 2.194101,1.313476 0.715875,1.471259 -0.09547,3.1954 -1.658902,3.524634 -1.718637,0.36192 -3.230859,-1.0788 -2.936129,-2.797531 0.184152,-1.073896 0.932566,-1.82231 2.006461,-2.006462 0.131198,-0.0225 0.263281,-0.03344 0.394469,-0.03412 z M 2.9999999,5.9999998 v 2 H 20.999999 v -2 z M 5.9999998,11 v 2 h 6.6901042 c 0.361323,-0.309136 0.746378,-0.583811 1.16927,-0.770834 0.746388,-0.330086 1.549198,-0.469895 2.338543,-0.434895 0.621857,0.02757 1.232008,0.170476 1.802083,0.408854 V 11 Z m 4,5 v 2 h 1.0104162 c -0.145276,-0.672872 -0.171818,-1.339462 -0.05729,-2 z" />
</svg>
