<svg viewBox="0 0 512 512">
   <path d="M 85,352 V 171 H 64 V 149 H 85 V 128 H 64 V 107 H 85 V 85 H 64 V 64 h 128 q 16,1 28.5,13.5 Q 233,90 235,107 h 213 v 21 H 235 q -2,17 -14.5,30.5 Q 208,172 192,171 h -43 v 150 q 2,0 5.5,-0.5 3.5,-0.5 5.5,-0.5 18,0 41,9 13,-30 45,-51.5 32,-21.5 64,-21.5 49,0 83,34 34,34 34,83 0,2 -0.5,6 -0.5,4 -0.5,5 H 67 q 4,-16 18,-32 z m 43,-27 V 171 h -21 v 164 q 15,-8 21,-10 z m 64,-176 v -21 h -43 v 21 z m 0,-64 h -43 v 22 h 43 z m -85,0 v 22 h 21 V 85 Z m 0,43 v 21 h 21 V 128 Z M 43,405 h 426 l -42,43 H 85 Z" />
</svg>
