<svg viewBox="0 0 512 512">
   <path d="m 43,341 h 426 v 43 q 0,17 -12.5,30 Q 444,427 427,427 H 85 Q 68,427 55.5,414 43,401 43,384 Z m 71,-53 q -11,0 -24,8 -22,13 -47,13 v -42 q 11,0 24,-8 23,-14 47,-14 23,0 46,14 13,8 25,8 11,0 24,-8 23,-14 47,-14 23,0 46,14 13,8 25,8 11,0 24,-8 23,-14 47,-14 23,0 46,14 l 25,8 v 42 q -24,0 -46,-13 -13,-8 -25,-8 -11,0 -24,8 -22,13 -47,13 -24,0 -46,-13 -13,-8 -25,-8 -11,0 -24,8 -22,13 -47,13 -24,0 -46,-13 -13,-8 -25,-8 z M 469,213 H 43 q -5,-52 58,-90 63,-38 155,-38 92,0 155,38 63,38 58,90 z" />
</svg>
